<?xml version="1.0" encoding="utf-8" standalone="no"?>
<!DOCTYPE svg PUBLIC "-//W3C//DTD SVG 1.1//EN"
  "http://www.w3.org/Graphics/SVG/1.1/DTD/svg11.dtd">
<svg xmlns:xlink="http://www.w3.org/1999/xlink" width="230.036812pt" height="134.107469pt" viewBox="0 0 230.036812 134.107469" xmlns="http://www.w3.org/2000/svg" version="1.1">
 <metadata>
  <rdf:RDF xmlns:dc="http://purl.org/dc/elements/1.1/" xmlns:cc="http://creativecommons.org/ns#" xmlns:rdf="http://www.w3.org/1999/02/22-rdf-syntax-ns#">
   <cc:Work>
    <dc:type rdf:resource="http://purl.org/dc/dcmitype/StillImage"/>
    <dc:date>2024-06-21T22:52:29.496454</dc:date>
    <dc:format>image/svg+xml</dc:format>
    <dc:creator>
     <cc:Agent>
      <dc:title>Matplotlib v3.8.0, https://matplotlib.org/</dc:title>
     </cc:Agent>
    </dc:creator>
   </cc:Work>
  </rdf:RDF>
 </metadata>
 <defs>
  <style type="text/css">*{stroke-linejoin: round; stroke-linecap: butt}</style>
 </defs>
 <g id="figure_1">
  <g id="patch_1">
   <path d="M 0 134.107469 
L 230.036812 134.107469 
L 230.036812 0 
L 0 0 
z
" style="fill: #ffffff"/>
  </g>
  <g id="axes_1">
   <g id="patch_2">
    <path d="M 43.78125 96.551219 
L 214.88525 96.551219 
L 214.88525 10.999219 
L 43.78125 10.999219 
z
" style="fill: #ffffff"/>
   </g>
   <g id="line2d_1">
    <path d="M 48.05885 96.551219 
L 48.05885 10.999219 
" clip-path="url(#pa3381ff29f)" style="fill: none; stroke: #808080; stroke-width: 0.5; stroke-linecap: square"/>
   </g>
   <g id="line2d_2">
    <path d="M 43.78125 92.273619 
L 214.88525 92.273619 
" clip-path="url(#pa3381ff29f)" style="fill: none; stroke: #808080; stroke-width: 0.5; stroke-linecap: square"/>
   </g>
   <g id="line2d_3">
    <path d="M 56.61405 96.551219 
L 56.61405 10.999219 
" clip-path="url(#pa3381ff29f)" style="fill: none; stroke: #808080; stroke-width: 0.5; stroke-linecap: square"/>
   </g>
   <g id="line2d_4">
    <path d="M 43.78125 83.718419 
L 214.88525 83.718419 
" clip-path="url(#pa3381ff29f)" style="fill: none; stroke: #808080; stroke-width: 0.5; stroke-linecap: square"/>
   </g>
   <g id="line2d_5">
    <path d="M 65.16925 96.551219 
L 65.16925 10.999219 
" clip-path="url(#pa3381ff29f)" style="fill: none; stroke: #808080; stroke-width: 0.5; stroke-linecap: square"/>
   </g>
   <g id="line2d_6">
    <path d="M 43.78125 75.163219 
L 214.88525 75.163219 
" clip-path="url(#pa3381ff29f)" style="fill: none; stroke: #808080; stroke-width: 0.5; stroke-linecap: square"/>
   </g>
   <g id="line2d_7">
    <path d="M 73.72445 96.551219 
L 73.72445 10.999219 
" clip-path="url(#pa3381ff29f)" style="fill: none; stroke: #808080; stroke-width: 0.5; stroke-linecap: square"/>
   </g>
   <g id="line2d_8">
    <path d="M 43.78125 66.608019 
L 214.88525 66.608019 
" clip-path="url(#pa3381ff29f)" style="fill: none; stroke: #808080; stroke-width: 0.5; stroke-linecap: square"/>
   </g>
   <g id="line2d_9">
    <path d="M 82.27965 96.551219 
L 82.27965 10.999219 
" clip-path="url(#pa3381ff29f)" style="fill: none; stroke: #808080; stroke-width: 0.5; stroke-linecap: square"/>
   </g>
   <g id="line2d_10">
    <path d="M 43.78125 58.052819 
L 214.88525 58.052819 
" clip-path="url(#pa3381ff29f)" style="fill: none; stroke: #808080; stroke-width: 0.5; stroke-linecap: square"/>
   </g>
   <g id="line2d_11">
    <path d="M 90.83485 96.551219 
L 90.83485 10.999219 
" clip-path="url(#pa3381ff29f)" style="fill: none; stroke: #808080; stroke-width: 0.5; stroke-linecap: square"/>
   </g>
   <g id="line2d_12">
    <path d="M 43.78125 49.497619 
L 214.88525 49.497619 
" clip-path="url(#pa3381ff29f)" style="fill: none; stroke: #808080; stroke-width: 0.5; stroke-linecap: square"/>
   </g>
   <g id="line2d_13">
    <path d="M 99.39005 96.551219 
L 99.39005 10.999219 
" clip-path="url(#pa3381ff29f)" style="fill: none; stroke: #808080; stroke-width: 0.5; stroke-linecap: square"/>
   </g>
   <g id="line2d_14">
    <path d="M 43.78125 40.942419 
L 214.88525 40.942419 
" clip-path="url(#pa3381ff29f)" style="fill: none; stroke: #808080; stroke-width: 0.5; stroke-linecap: square"/>
   </g>
   <g id="line2d_15">
    <path d="M 107.94525 96.551219 
L 107.94525 10.999219 
" clip-path="url(#pa3381ff29f)" style="fill: none; stroke: #808080; stroke-width: 0.5; stroke-linecap: square"/>
   </g>
   <g id="line2d_16">
    <path d="M 43.78125 32.387219 
L 214.88525 32.387219 
" clip-path="url(#pa3381ff29f)" style="fill: none; stroke: #808080; stroke-width: 0.5; stroke-linecap: square"/>
   </g>
   <g id="line2d_17">
    <path d="M 116.50045 96.551219 
L 116.50045 10.999219 
" clip-path="url(#pa3381ff29f)" style="fill: none; stroke: #808080; stroke-width: 0.5; stroke-linecap: square"/>
   </g>
   <g id="line2d_18">
    <path d="M 43.78125 23.832019 
L 214.88525 23.832019 
" clip-path="url(#pa3381ff29f)" style="fill: none; stroke: #808080; stroke-width: 0.5; stroke-linecap: square"/>
   </g>
   <g id="line2d_19">
    <path d="M 125.05565 96.551219 
L 125.05565 10.999219 
" clip-path="url(#pa3381ff29f)" style="fill: none; stroke: #808080; stroke-width: 0.5; stroke-linecap: square"/>
   </g>
   <g id="line2d_20">
    <path d="M 43.78125 15.276819 
L 214.88525 15.276819 
" clip-path="url(#pa3381ff29f)" style="fill: none; stroke: #808080; stroke-width: 0.5; stroke-linecap: square"/>
   </g>
   <g id="line2d_21">
    <path d="M 133.61085 96.551219 
L 133.61085 10.999219 
" clip-path="url(#pa3381ff29f)" style="fill: none; stroke: #808080; stroke-width: 0.5; stroke-linecap: square"/>
   </g>
   <g id="line2d_22">
    <path d="M 43.78125 6.721619 
L 214.88525 6.721619 
" clip-path="url(#pa3381ff29f)" style="fill: none; stroke: #808080; stroke-width: 0.5; stroke-linecap: square"/>
   </g>
   <g id="line2d_23">
    <path d="M 142.16605 96.551219 
L 142.16605 10.999219 
" clip-path="url(#pa3381ff29f)" style="fill: none; stroke: #808080; stroke-width: 0.5; stroke-linecap: square"/>
   </g>
   <g id="line2d_24">
    <path clip-path="url(#pa3381ff29f)" style="fill: none; stroke: #808080; stroke-width: 0.5; stroke-linecap: square"/>
   </g>
   <g id="line2d_25">
    <path d="M 150.72125 96.551219 
L 150.72125 10.999219 
" clip-path="url(#pa3381ff29f)" style="fill: none; stroke: #808080; stroke-width: 0.5; stroke-linecap: square"/>
   </g>
   <g id="line2d_26">
    <path clip-path="url(#pa3381ff29f)" style="fill: none; stroke: #808080; stroke-width: 0.5; stroke-linecap: square"/>
   </g>
   <g id="line2d_27">
    <path d="M 159.27645 96.551219 
L 159.27645 10.999219 
" clip-path="url(#pa3381ff29f)" style="fill: none; stroke: #808080; stroke-width: 0.5; stroke-linecap: square"/>
   </g>
   <g id="line2d_28">
    <path clip-path="url(#pa3381ff29f)" style="fill: none; stroke: #808080; stroke-width: 0.5; stroke-linecap: square"/>
   </g>
   <g id="line2d_29">
    <path d="M 167.83165 96.551219 
L 167.83165 10.999219 
" clip-path="url(#pa3381ff29f)" style="fill: none; stroke: #808080; stroke-width: 0.5; stroke-linecap: square"/>
   </g>
   <g id="line2d_30">
    <path clip-path="url(#pa3381ff29f)" style="fill: none; stroke: #808080; stroke-width: 0.5; stroke-linecap: square"/>
   </g>
   <g id="line2d_31">
    <path d="M 176.38685 96.551219 
L 176.38685 10.999219 
" clip-path="url(#pa3381ff29f)" style="fill: none; stroke: #808080; stroke-width: 0.5; stroke-linecap: square"/>
   </g>
   <g id="line2d_32">
    <path clip-path="url(#pa3381ff29f)" style="fill: none; stroke: #808080; stroke-width: 0.5; stroke-linecap: square"/>
   </g>
   <g id="line2d_33">
    <path d="M 184.94205 96.551219 
L 184.94205 10.999219 
" clip-path="url(#pa3381ff29f)" style="fill: none; stroke: #808080; stroke-width: 0.5; stroke-linecap: square"/>
   </g>
   <g id="line2d_34">
    <path clip-path="url(#pa3381ff29f)" style="fill: none; stroke: #808080; stroke-width: 0.5; stroke-linecap: square"/>
   </g>
   <g id="line2d_35">
    <path d="M 193.49725 96.551219 
L 193.49725 10.999219 
" clip-path="url(#pa3381ff29f)" style="fill: none; stroke: #808080; stroke-width: 0.5; stroke-linecap: square"/>
   </g>
   <g id="line2d_36">
    <path clip-path="url(#pa3381ff29f)" style="fill: none; stroke: #808080; stroke-width: 0.5; stroke-linecap: square"/>
   </g>
   <g id="line2d_37">
    <path d="M 202.05245 96.551219 
L 202.05245 10.999219 
" clip-path="url(#pa3381ff29f)" style="fill: none; stroke: #808080; stroke-width: 0.5; stroke-linecap: square"/>
   </g>
   <g id="line2d_38">
    <path clip-path="url(#pa3381ff29f)" style="fill: none; stroke: #808080; stroke-width: 0.5; stroke-linecap: square"/>
   </g>
   <g id="line2d_39">
    <path d="M 210.60765 96.551219 
L 210.60765 10.999219 
" clip-path="url(#pa3381ff29f)" style="fill: none; stroke: #808080; stroke-width: 0.5; stroke-linecap: square"/>
   </g>
   <g id="line2d_40">
    <path clip-path="url(#pa3381ff29f)" style="fill: none; stroke: #808080; stroke-width: 0.5; stroke-linecap: square"/>
   </g>
   <g id="line2d_41">
    <path d="M 219.16285 96.551219 
L 219.16285 10.999219 
" clip-path="url(#pa3381ff29f)" style="fill: none; stroke: #808080; stroke-width: 0.5; stroke-linecap: square"/>
   </g>
   <g id="line2d_42">
    <path clip-path="url(#pa3381ff29f)" style="fill: none; stroke: #808080; stroke-width: 0.5; stroke-linecap: square"/>
   </g>
   <g id="matplotlib.axis_1">
    <g id="xtick_1">
     <g id="line2d_43">
      <defs>
       <path id="m46b879b64e" d="M 0 0 
L 0 3.5 
" style="stroke: #000000; stroke-width: 0.8"/>
      </defs>
      <g>
       <use xlink:href="#m46b879b64e" x="43.78125" y="96.551219" style="stroke: #000000; stroke-width: 0.8"/>
      </g>
     </g>
     <g id="text_1">
      <!-- 0.0 -->
      <g transform="translate(35.829688 111.149656) scale(0.1 -0.1)">
       <defs>
        <path id="DejaVuSans-30" d="M 2034 4250 
Q 1547 4250 1301 3770 
Q 1056 3291 1056 2328 
Q 1056 1369 1301 889 
Q 1547 409 2034 409 
Q 2525 409 2770 889 
Q 3016 1369 3016 2328 
Q 3016 3291 2770 3770 
Q 2525 4250 2034 4250 
z
M 2034 4750 
Q 2819 4750 3233 4129 
Q 3647 3509 3647 2328 
Q 3647 1150 3233 529 
Q 2819 -91 2034 -91 
Q 1250 -91 836 529 
Q 422 1150 422 2328 
Q 422 3509 836 4129 
Q 1250 4750 2034 4750 
z
" transform="scale(0.015625)"/>
        <path id="DejaVuSans-2e" d="M 684 794 
L 1344 794 
L 1344 0 
L 684 0 
L 684 794 
z
" transform="scale(0.015625)"/>
       </defs>
       <use xlink:href="#DejaVuSans-30"/>
       <use xlink:href="#DejaVuSans-2e" x="63.623047"/>
       <use xlink:href="#DejaVuSans-30" x="95.410156"/>
      </g>
     </g>
    </g>
    <g id="xtick_2">
     <g id="line2d_44">
      <g>
       <use xlink:href="#m46b879b64e" x="78.00205" y="96.551219" style="stroke: #000000; stroke-width: 0.8"/>
      </g>
     </g>
     <g id="text_2">
      <!-- 0.2 -->
      <g transform="translate(70.050488 111.149656) scale(0.1 -0.1)">
       <defs>
        <path id="DejaVuSans-32" d="M 1228 531 
L 3431 531 
L 3431 0 
L 469 0 
L 469 531 
Q 828 903 1448 1529 
Q 2069 2156 2228 2338 
Q 2531 2678 2651 2914 
Q 2772 3150 2772 3378 
Q 2772 3750 2511 3984 
Q 2250 4219 1831 4219 
Q 1534 4219 1204 4116 
Q 875 4013 500 3803 
L 500 4441 
Q 881 4594 1212 4672 
Q 1544 4750 1819 4750 
Q 2544 4750 2975 4387 
Q 3406 4025 3406 3419 
Q 3406 3131 3298 2873 
Q 3191 2616 2906 2266 
Q 2828 2175 2409 1742 
Q 1991 1309 1228 531 
z
" transform="scale(0.015625)"/>
       </defs>
       <use xlink:href="#DejaVuSans-30"/>
       <use xlink:href="#DejaVuSans-2e" x="63.623047"/>
       <use xlink:href="#DejaVuSans-32" x="95.410156"/>
      </g>
     </g>
    </g>
    <g id="xtick_3">
     <g id="line2d_45">
      <g>
       <use xlink:href="#m46b879b64e" x="112.22285" y="96.551219" style="stroke: #000000; stroke-width: 0.8"/>
      </g>
     </g>
     <g id="text_3">
      <!-- 0.4 -->
      <g transform="translate(104.271288 111.149656) scale(0.1 -0.1)">
       <defs>
        <path id="DejaVuSans-34" d="M 2419 4116 
L 825 1625 
L 2419 1625 
L 2419 4116 
z
M 2253 4666 
L 3047 4666 
L 3047 1625 
L 3713 1625 
L 3713 1100 
L 3047 1100 
L 3047 0 
L 2419 0 
L 2419 1100 
L 313 1100 
L 313 1709 
L 2253 4666 
z
" transform="scale(0.015625)"/>
       </defs>
       <use xlink:href="#DejaVuSans-30"/>
       <use xlink:href="#DejaVuSans-2e" x="63.623047"/>
       <use xlink:href="#DejaVuSans-34" x="95.410156"/>
      </g>
     </g>
    </g>
    <g id="xtick_4">
     <g id="line2d_46">
      <g>
       <use xlink:href="#m46b879b64e" x="146.44365" y="96.551219" style="stroke: #000000; stroke-width: 0.8"/>
      </g>
     </g>
     <g id="text_4">
      <!-- 0.6 -->
      <g transform="translate(138.492088 111.149656) scale(0.1 -0.1)">
       <defs>
        <path id="DejaVuSans-36" d="M 2113 2584 
Q 1688 2584 1439 2293 
Q 1191 2003 1191 1497 
Q 1191 994 1439 701 
Q 1688 409 2113 409 
Q 2538 409 2786 701 
Q 3034 994 3034 1497 
Q 3034 2003 2786 2293 
Q 2538 2584 2113 2584 
z
M 3366 4563 
L 3366 3988 
Q 3128 4100 2886 4159 
Q 2644 4219 2406 4219 
Q 1781 4219 1451 3797 
Q 1122 3375 1075 2522 
Q 1259 2794 1537 2939 
Q 1816 3084 2150 3084 
Q 2853 3084 3261 2657 
Q 3669 2231 3669 1497 
Q 3669 778 3244 343 
Q 2819 -91 2113 -91 
Q 1303 -91 875 529 
Q 447 1150 447 2328 
Q 447 3434 972 4092 
Q 1497 4750 2381 4750 
Q 2619 4750 2861 4703 
Q 3103 4656 3366 4563 
z
" transform="scale(0.015625)"/>
       </defs>
       <use xlink:href="#DejaVuSans-30"/>
       <use xlink:href="#DejaVuSans-2e" x="63.623047"/>
       <use xlink:href="#DejaVuSans-36" x="95.410156"/>
      </g>
     </g>
    </g>
    <g id="xtick_5">
     <g id="line2d_47">
      <g>
       <use xlink:href="#m46b879b64e" x="180.66445" y="96.551219" style="stroke: #000000; stroke-width: 0.8"/>
      </g>
     </g>
     <g id="text_5">
      <!-- 0.8 -->
      <g transform="translate(172.712888 111.149656) scale(0.1 -0.1)">
       <defs>
        <path id="DejaVuSans-38" d="M 2034 2216 
Q 1584 2216 1326 1975 
Q 1069 1734 1069 1313 
Q 1069 891 1326 650 
Q 1584 409 2034 409 
Q 2484 409 2743 651 
Q 3003 894 3003 1313 
Q 3003 1734 2745 1975 
Q 2488 2216 2034 2216 
z
M 1403 2484 
Q 997 2584 770 2862 
Q 544 3141 544 3541 
Q 544 4100 942 4425 
Q 1341 4750 2034 4750 
Q 2731 4750 3128 4425 
Q 3525 4100 3525 3541 
Q 3525 3141 3298 2862 
Q 3072 2584 2669 2484 
Q 3125 2378 3379 2068 
Q 3634 1759 3634 1313 
Q 3634 634 3220 271 
Q 2806 -91 2034 -91 
Q 1263 -91 848 271 
Q 434 634 434 1313 
Q 434 1759 690 2068 
Q 947 2378 1403 2484 
z
M 1172 3481 
Q 1172 3119 1398 2916 
Q 1625 2713 2034 2713 
Q 2441 2713 2670 2916 
Q 2900 3119 2900 3481 
Q 2900 3844 2670 4047 
Q 2441 4250 2034 4250 
Q 1625 4250 1398 4047 
Q 1172 3844 1172 3481 
z
" transform="scale(0.015625)"/>
       </defs>
       <use xlink:href="#DejaVuSans-30"/>
       <use xlink:href="#DejaVuSans-2e" x="63.623047"/>
       <use xlink:href="#DejaVuSans-38" x="95.410156"/>
      </g>
     </g>
    </g>
    <g id="xtick_6">
     <g id="line2d_48">
      <g>
       <use xlink:href="#m46b879b64e" x="214.88525" y="96.551219" style="stroke: #000000; stroke-width: 0.8"/>
      </g>
     </g>
     <g id="text_6">
      <!-- 1.0 -->
      <g transform="translate(206.933688 111.149656) scale(0.1 -0.1)">
       <defs>
        <path id="DejaVuSans-31" d="M 794 531 
L 1825 531 
L 1825 4091 
L 703 3866 
L 703 4441 
L 1819 4666 
L 2450 4666 
L 2450 531 
L 3481 531 
L 3481 0 
L 794 0 
L 794 531 
z
" transform="scale(0.015625)"/>
       </defs>
       <use xlink:href="#DejaVuSans-31"/>
       <use xlink:href="#DejaVuSans-2e" x="63.623047"/>
       <use xlink:href="#DejaVuSans-30" x="95.410156"/>
      </g>
     </g>
    </g>
    <g id="text_7">
     <!-- $P_1$ -->
     <g transform="translate(123.93325 124.827781) scale(0.1 -0.1)">
      <defs>
       <path id="DejaVuSans-Oblique-50" d="M 1081 4666 
L 2541 4666 
Q 3178 4666 3512 4369 
Q 3847 4072 3847 3500 
Q 3847 2731 3353 2303 
Q 2859 1875 1966 1875 
L 1172 1875 
L 806 0 
L 172 0 
L 1081 4666 
z
M 1613 4147 
L 1275 2394 
L 2069 2394 
Q 2606 2394 2893 2669 
Q 3181 2944 3181 3456 
Q 3181 3784 2986 3965 
Q 2791 4147 2438 4147 
L 1613 4147 
z
" transform="scale(0.015625)"/>
      </defs>
      <use xlink:href="#DejaVuSans-Oblique-50" transform="translate(0 0.09375)"/>
      <use xlink:href="#DejaVuSans-31" transform="translate(60.302734 -16.3125) scale(0.7)"/>
     </g>
    </g>
   </g>
   <g id="matplotlib.axis_2">
    <g id="ytick_1">
     <g id="line2d_49">
      <defs>
       <path id="mbb3a73d93e" d="M 0 0 
L -3.5 0 
" style="stroke: #000000; stroke-width: 0.8"/>
      </defs>
      <g>
       <use xlink:href="#mbb3a73d93e" x="43.78125" y="96.551219" style="stroke: #000000; stroke-width: 0.8"/>
      </g>
     </g>
     <g id="text_8">
      <!-- 0.0 -->
      <g transform="translate(20.878125 100.350437) scale(0.1 -0.1)">
       <use xlink:href="#DejaVuSans-30"/>
       <use xlink:href="#DejaVuSans-2e" x="63.623047"/>
       <use xlink:href="#DejaVuSans-30" x="95.410156"/>
      </g>
     </g>
    </g>
    <g id="ytick_2">
     <g id="line2d_50">
      <g>
       <use xlink:href="#mbb3a73d93e" x="43.78125" y="79.440819" style="stroke: #000000; stroke-width: 0.8"/>
      </g>
     </g>
     <g id="text_9">
      <!-- 0.1 -->
      <g transform="translate(20.878125 83.240037) scale(0.1 -0.1)">
       <use xlink:href="#DejaVuSans-30"/>
       <use xlink:href="#DejaVuSans-2e" x="63.623047"/>
       <use xlink:href="#DejaVuSans-31" x="95.410156"/>
      </g>
     </g>
    </g>
    <g id="ytick_3">
     <g id="line2d_51">
      <g>
       <use xlink:href="#mbb3a73d93e" x="43.78125" y="62.330419" style="stroke: #000000; stroke-width: 0.8"/>
      </g>
     </g>
     <g id="text_10">
      <!-- 0.2 -->
      <g transform="translate(20.878125 66.129638) scale(0.1 -0.1)">
       <use xlink:href="#DejaVuSans-30"/>
       <use xlink:href="#DejaVuSans-2e" x="63.623047"/>
       <use xlink:href="#DejaVuSans-32" x="95.410156"/>
      </g>
     </g>
    </g>
    <g id="ytick_4">
     <g id="line2d_52">
      <g>
       <use xlink:href="#mbb3a73d93e" x="43.78125" y="45.220019" style="stroke: #000000; stroke-width: 0.8"/>
      </g>
     </g>
     <g id="text_11">
      <!-- 0.3 -->
      <g transform="translate(20.878125 49.019238) scale(0.1 -0.1)">
       <defs>
        <path id="DejaVuSans-33" d="M 2597 2516 
Q 3050 2419 3304 2112 
Q 3559 1806 3559 1356 
Q 3559 666 3084 287 
Q 2609 -91 1734 -91 
Q 1441 -91 1130 -33 
Q 819 25 488 141 
L 488 750 
Q 750 597 1062 519 
Q 1375 441 1716 441 
Q 2309 441 2620 675 
Q 2931 909 2931 1356 
Q 2931 1769 2642 2001 
Q 2353 2234 1838 2234 
L 1294 2234 
L 1294 2753 
L 1863 2753 
Q 2328 2753 2575 2939 
Q 2822 3125 2822 3475 
Q 2822 3834 2567 4026 
Q 2313 4219 1838 4219 
Q 1578 4219 1281 4162 
Q 984 4106 628 3988 
L 628 4550 
Q 988 4650 1302 4700 
Q 1616 4750 1894 4750 
Q 2613 4750 3031 4423 
Q 3450 4097 3450 3541 
Q 3450 3153 3228 2886 
Q 3006 2619 2597 2516 
z
" transform="scale(0.015625)"/>
       </defs>
       <use xlink:href="#DejaVuSans-30"/>
       <use xlink:href="#DejaVuSans-2e" x="63.623047"/>
       <use xlink:href="#DejaVuSans-33" x="95.410156"/>
      </g>
     </g>
    </g>
    <g id="ytick_5">
     <g id="line2d_53">
      <g>
       <use xlink:href="#mbb3a73d93e" x="43.78125" y="28.109619" style="stroke: #000000; stroke-width: 0.8"/>
      </g>
     </g>
     <g id="text_12">
      <!-- 0.4 -->
      <g transform="translate(20.878125 31.908837) scale(0.1 -0.1)">
       <use xlink:href="#DejaVuSans-30"/>
       <use xlink:href="#DejaVuSans-2e" x="63.623047"/>
       <use xlink:href="#DejaVuSans-34" x="95.410156"/>
      </g>
     </g>
    </g>
    <g id="ytick_6">
     <g id="line2d_54">
      <g>
       <use xlink:href="#mbb3a73d93e" x="43.78125" y="10.999219" style="stroke: #000000; stroke-width: 0.8"/>
      </g>
     </g>
     <g id="text_13">
      <!-- 0.5 -->
      <g transform="translate(20.878125 14.798437) scale(0.1 -0.1)">
       <defs>
        <path id="DejaVuSans-35" d="M 691 4666 
L 3169 4666 
L 3169 4134 
L 1269 4134 
L 1269 2991 
Q 1406 3038 1543 3061 
Q 1681 3084 1819 3084 
Q 2600 3084 3056 2656 
Q 3513 2228 3513 1497 
Q 3513 744 3044 326 
Q 2575 -91 1722 -91 
Q 1428 -91 1123 -41 
Q 819 9 494 109 
L 494 744 
Q 775 591 1075 516 
Q 1375 441 1709 441 
Q 2250 441 2565 725 
Q 2881 1009 2881 1497 
Q 2881 1984 2565 2268 
Q 2250 2553 1709 2553 
Q 1456 2553 1204 2497 
Q 953 2441 691 2322 
L 691 4666 
z
" transform="scale(0.015625)"/>
       </defs>
       <use xlink:href="#DejaVuSans-30"/>
       <use xlink:href="#DejaVuSans-2e" x="63.623047"/>
       <use xlink:href="#DejaVuSans-35" x="95.410156"/>
      </g>
     </g>
    </g>
    <g id="text_14">
     <!-- $P_2$ -->
     <g transform="translate(14.798438 59.175219) rotate(-90) scale(0.1 -0.1)">
      <use xlink:href="#DejaVuSans-Oblique-50" transform="translate(0 0.09375)"/>
      <use xlink:href="#DejaVuSans-32" transform="translate(60.302734 -16.3125) scale(0.7)"/>
     </g>
    </g>
   </g>
   <g id="PathCollection_1">
    <defs>
     <path id="m73613f607d" d="M 0 1.5 
C 0.397805 1.5 0.77937 1.341951 1.06066 1.06066 
C 1.341951 0.77937 1.5 0.397805 1.5 0 
C 1.5 -0.397805 1.341951 -0.77937 1.06066 -1.06066 
C 0.77937 -1.341951 0.397805 -1.5 0 -1.5 
C -0.397805 -1.5 -0.77937 -1.341951 -1.06066 -1.06066 
C -1.341951 -0.77937 -1.5 -0.397805 -1.5 0 
C -1.5 0.397805 -1.341951 0.77937 -1.06066 1.06066 
C -0.77937 1.341951 -0.397805 1.5 0 1.5 
z
" style="stroke: #000000"/>
    </defs>
    <g clip-path="url(#pa3381ff29f)">
     <use xlink:href="#m73613f607d" x="43.78125" y="96.551219" style="stroke: #000000"/>
     <use xlink:href="#m73613f607d" x="43.78125" y="87.996019" style="stroke: #000000"/>
     <use xlink:href="#m73613f607d" x="43.78125" y="79.440819" style="stroke: #000000"/>
     <use xlink:href="#m73613f607d" x="43.78125" y="70.885619" style="stroke: #000000"/>
     <use xlink:href="#m73613f607d" x="43.78125" y="62.330419" style="stroke: #000000"/>
     <use xlink:href="#m73613f607d" x="43.78125" y="53.775219" style="stroke: #000000"/>
     <use xlink:href="#m73613f607d" x="43.78125" y="45.220019" style="stroke: #000000"/>
     <use xlink:href="#m73613f607d" x="43.78125" y="36.664819" style="stroke: #000000"/>
     <use xlink:href="#m73613f607d" x="43.78125" y="28.109619" style="stroke: #000000"/>
     <use xlink:href="#m73613f607d" x="43.78125" y="19.554419" style="stroke: #000000"/>
     <use xlink:href="#m73613f607d" x="43.78125" y="10.999219" style="stroke: #000000"/>
     <use xlink:href="#m73613f607d" x="43.78125" y="2.444019" style="stroke: #000000"/>
     <use xlink:href="#m73613f607d" x="43.78125" y="-1" style="stroke: #000000"/>
     <use xlink:href="#m73613f607d" x="47.458889" y="-1" style="stroke: #000000"/>
     <use xlink:href="#m73613f607d" x="52.33645" y="96.551219" style="stroke: #000000"/>
     <use xlink:href="#m73613f607d" x="52.33645" y="87.996019" style="stroke: #000000"/>
     <use xlink:href="#m73613f607d" x="52.33645" y="79.440819" style="stroke: #000000"/>
     <use xlink:href="#m73613f607d" x="52.33645" y="70.885619" style="stroke: #000000"/>
     <use xlink:href="#m73613f607d" x="52.33645" y="62.330419" style="stroke: #000000"/>
     <use xlink:href="#m73613f607d" x="52.33645" y="53.775219" style="stroke: #000000"/>
     <use xlink:href="#m73613f607d" x="52.33645" y="45.220019" style="stroke: #000000"/>
     <use xlink:href="#m73613f607d" x="52.33645" y="36.664819" style="stroke: #000000"/>
     <use xlink:href="#m73613f607d" x="52.33645" y="28.109619" style="stroke: #000000"/>
     <use xlink:href="#m73613f607d" x="52.33645" y="19.554419" style="stroke: #000000"/>
     <use xlink:href="#m73613f607d" x="52.33645" y="10.999219" style="stroke: #000000"/>
     <use xlink:href="#m73613f607d" x="52.33645" y="2.444019" style="stroke: #000000"/>
     <use xlink:href="#m73613f607d" x="52.33645" y="-1" style="stroke: #000000"/>
     <use xlink:href="#m73613f607d" x="56.014089" y="-1" style="stroke: #000000"/>
     <use xlink:href="#m73613f607d" x="60.89165" y="96.551219" style="stroke: #000000"/>
     <use xlink:href="#m73613f607d" x="60.89165" y="87.996019" style="stroke: #000000"/>
     <use xlink:href="#m73613f607d" x="60.89165" y="79.440819" style="stroke: #000000"/>
     <use xlink:href="#m73613f607d" x="60.89165" y="70.885619" style="stroke: #000000"/>
     <use xlink:href="#m73613f607d" x="60.89165" y="62.330419" style="stroke: #000000"/>
     <use xlink:href="#m73613f607d" x="60.89165" y="53.775219" style="stroke: #000000"/>
     <use xlink:href="#m73613f607d" x="60.89165" y="45.220019" style="stroke: #000000"/>
     <use xlink:href="#m73613f607d" x="60.89165" y="36.664819" style="stroke: #000000"/>
     <use xlink:href="#m73613f607d" x="60.89165" y="28.109619" style="stroke: #000000"/>
     <use xlink:href="#m73613f607d" x="60.89165" y="19.554419" style="stroke: #000000"/>
     <use xlink:href="#m73613f607d" x="60.89165" y="10.999219" style="stroke: #000000"/>
     <use xlink:href="#m73613f607d" x="60.89165" y="2.444019" style="stroke: #000000"/>
     <use xlink:href="#m73613f607d" x="60.89165" y="-1" style="stroke: #000000"/>
     <use xlink:href="#m73613f607d" x="64.569289" y="-1" style="stroke: #000000"/>
     <use xlink:href="#m73613f607d" x="69.44685" y="96.551219" style="stroke: #000000"/>
     <use xlink:href="#m73613f607d" x="69.44685" y="87.996019" style="stroke: #000000"/>
     <use xlink:href="#m73613f607d" x="69.44685" y="79.440819" style="stroke: #000000"/>
     <use xlink:href="#m73613f607d" x="69.44685" y="70.885619" style="stroke: #000000"/>
     <use xlink:href="#m73613f607d" x="69.44685" y="62.330419" style="stroke: #000000"/>
     <use xlink:href="#m73613f607d" x="69.44685" y="53.775219" style="stroke: #000000"/>
     <use xlink:href="#m73613f607d" x="69.44685" y="45.220019" style="stroke: #000000"/>
     <use xlink:href="#m73613f607d" x="69.44685" y="36.664819" style="stroke: #000000"/>
     <use xlink:href="#m73613f607d" x="69.44685" y="28.109619" style="stroke: #000000"/>
     <use xlink:href="#m73613f607d" x="69.44685" y="19.554419" style="stroke: #000000"/>
     <use xlink:href="#m73613f607d" x="69.44685" y="10.999219" style="stroke: #000000"/>
     <use xlink:href="#m73613f607d" x="69.44685" y="2.444019" style="stroke: #000000"/>
     <use xlink:href="#m73613f607d" x="69.44685" y="-1" style="stroke: #000000"/>
     <use xlink:href="#m73613f607d" x="73.124489" y="-1" style="stroke: #000000"/>
     <use xlink:href="#m73613f607d" x="78.00205" y="96.551219" style="stroke: #000000"/>
     <use xlink:href="#m73613f607d" x="78.00205" y="87.996019" style="stroke: #000000"/>
     <use xlink:href="#m73613f607d" x="78.00205" y="79.440819" style="stroke: #000000"/>
     <use xlink:href="#m73613f607d" x="78.00205" y="70.885619" style="stroke: #000000"/>
     <use xlink:href="#m73613f607d" x="78.00205" y="62.330419" style="stroke: #000000"/>
     <use xlink:href="#m73613f607d" x="78.00205" y="53.775219" style="stroke: #000000"/>
     <use xlink:href="#m73613f607d" x="78.00205" y="45.220019" style="stroke: #000000"/>
     <use xlink:href="#m73613f607d" x="78.00205" y="36.664819" style="stroke: #000000"/>
     <use xlink:href="#m73613f607d" x="78.00205" y="28.109619" style="stroke: #000000"/>
     <use xlink:href="#m73613f607d" x="78.00205" y="19.554419" style="stroke: #000000"/>
     <use xlink:href="#m73613f607d" x="78.00205" y="10.999219" style="stroke: #000000"/>
     <use xlink:href="#m73613f607d" x="78.00205" y="2.444019" style="stroke: #000000"/>
     <use xlink:href="#m73613f607d" x="78.00205" y="-1" style="stroke: #000000"/>
     <use xlink:href="#m73613f607d" x="81.679689" y="-1" style="stroke: #000000"/>
     <use xlink:href="#m73613f607d" x="86.55725" y="96.551219" style="stroke: #000000"/>
     <use xlink:href="#m73613f607d" x="86.55725" y="87.996019" style="stroke: #000000"/>
     <use xlink:href="#m73613f607d" x="86.55725" y="79.440819" style="stroke: #000000"/>
     <use xlink:href="#m73613f607d" x="86.55725" y="70.885619" style="stroke: #000000"/>
     <use xlink:href="#m73613f607d" x="86.55725" y="62.330419" style="stroke: #000000"/>
     <use xlink:href="#m73613f607d" x="86.55725" y="53.775219" style="stroke: #000000"/>
     <use xlink:href="#m73613f607d" x="86.55725" y="45.220019" style="stroke: #000000"/>
     <use xlink:href="#m73613f607d" x="86.55725" y="36.664819" style="stroke: #000000"/>
     <use xlink:href="#m73613f607d" x="86.55725" y="28.109619" style="stroke: #000000"/>
     <use xlink:href="#m73613f607d" x="86.55725" y="19.554419" style="stroke: #000000"/>
     <use xlink:href="#m73613f607d" x="86.55725" y="10.999219" style="stroke: #000000"/>
     <use xlink:href="#m73613f607d" x="86.55725" y="2.444019" style="stroke: #000000"/>
     <use xlink:href="#m73613f607d" x="86.55725" y="-1" style="stroke: #000000"/>
     <use xlink:href="#m73613f607d" x="90.234889" y="-1" style="stroke: #000000"/>
     <use xlink:href="#m73613f607d" x="95.11245" y="96.551219" style="stroke: #000000"/>
     <use xlink:href="#m73613f607d" x="95.11245" y="87.996019" style="stroke: #000000"/>
     <use xlink:href="#m73613f607d" x="95.11245" y="79.440819" style="stroke: #000000"/>
     <use xlink:href="#m73613f607d" x="95.11245" y="70.885619" style="stroke: #000000"/>
     <use xlink:href="#m73613f607d" x="95.11245" y="62.330419" style="stroke: #000000"/>
     <use xlink:href="#m73613f607d" x="95.11245" y="53.775219" style="stroke: #000000"/>
     <use xlink:href="#m73613f607d" x="95.11245" y="45.220019" style="stroke: #000000"/>
     <use xlink:href="#m73613f607d" x="95.11245" y="36.664819" style="stroke: #000000"/>
     <use xlink:href="#m73613f607d" x="95.11245" y="28.109619" style="stroke: #000000"/>
     <use xlink:href="#m73613f607d" x="95.11245" y="19.554419" style="stroke: #000000"/>
     <use xlink:href="#m73613f607d" x="95.11245" y="10.999219" style="stroke: #000000"/>
     <use xlink:href="#m73613f607d" x="95.11245" y="2.444019" style="stroke: #000000"/>
     <use xlink:href="#m73613f607d" x="95.11245" y="-1" style="stroke: #000000"/>
     <use xlink:href="#m73613f607d" x="98.790089" y="-1" style="stroke: #000000"/>
     <use xlink:href="#m73613f607d" x="103.66765" y="96.551219" style="stroke: #000000"/>
     <use xlink:href="#m73613f607d" x="103.66765" y="87.996019" style="stroke: #000000"/>
     <use xlink:href="#m73613f607d" x="103.66765" y="79.440819" style="stroke: #000000"/>
     <use xlink:href="#m73613f607d" x="103.66765" y="70.885619" style="stroke: #000000"/>
     <use xlink:href="#m73613f607d" x="103.66765" y="62.330419" style="stroke: #000000"/>
     <use xlink:href="#m73613f607d" x="103.66765" y="53.775219" style="stroke: #000000"/>
     <use xlink:href="#m73613f607d" x="103.66765" y="45.220019" style="stroke: #000000"/>
     <use xlink:href="#m73613f607d" x="103.66765" y="36.664819" style="stroke: #000000"/>
     <use xlink:href="#m73613f607d" x="103.66765" y="28.109619" style="stroke: #000000"/>
     <use xlink:href="#m73613f607d" x="103.66765" y="19.554419" style="stroke: #000000"/>
     <use xlink:href="#m73613f607d" x="103.66765" y="10.999219" style="stroke: #000000"/>
     <use xlink:href="#m73613f607d" x="103.66765" y="2.444019" style="stroke: #000000"/>
     <use xlink:href="#m73613f607d" x="103.66765" y="-1" style="stroke: #000000"/>
     <use xlink:href="#m73613f607d" x="107.345289" y="-1" style="stroke: #000000"/>
     <use xlink:href="#m73613f607d" x="112.22285" y="96.551219" style="stroke: #000000"/>
     <use xlink:href="#m73613f607d" x="112.22285" y="87.996019" style="stroke: #000000"/>
     <use xlink:href="#m73613f607d" x="112.22285" y="79.440819" style="stroke: #000000"/>
     <use xlink:href="#m73613f607d" x="112.22285" y="70.885619" style="stroke: #000000"/>
     <use xlink:href="#m73613f607d" x="112.22285" y="62.330419" style="stroke: #000000"/>
     <use xlink:href="#m73613f607d" x="112.22285" y="53.775219" style="stroke: #000000"/>
     <use xlink:href="#m73613f607d" x="112.22285" y="45.220019" style="stroke: #000000"/>
     <use xlink:href="#m73613f607d" x="112.22285" y="36.664819" style="stroke: #000000"/>
     <use xlink:href="#m73613f607d" x="112.22285" y="28.109619" style="stroke: #000000"/>
     <use xlink:href="#m73613f607d" x="112.22285" y="19.554419" style="stroke: #000000"/>
     <use xlink:href="#m73613f607d" x="112.22285" y="10.999219" style="stroke: #000000"/>
     <use xlink:href="#m73613f607d" x="112.22285" y="2.444019" style="stroke: #000000"/>
     <use xlink:href="#m73613f607d" x="112.22285" y="-1" style="stroke: #000000"/>
     <use xlink:href="#m73613f607d" x="115.900489" y="-1" style="stroke: #000000"/>
     <use xlink:href="#m73613f607d" x="120.77805" y="96.551219" style="stroke: #000000"/>
     <use xlink:href="#m73613f607d" x="120.77805" y="87.996019" style="stroke: #000000"/>
     <use xlink:href="#m73613f607d" x="120.77805" y="79.440819" style="stroke: #000000"/>
     <use xlink:href="#m73613f607d" x="120.77805" y="70.885619" style="stroke: #000000"/>
     <use xlink:href="#m73613f607d" x="120.77805" y="62.330419" style="stroke: #000000"/>
     <use xlink:href="#m73613f607d" x="120.77805" y="53.775219" style="stroke: #000000"/>
     <use xlink:href="#m73613f607d" x="120.77805" y="45.220019" style="stroke: #000000"/>
     <use xlink:href="#m73613f607d" x="120.77805" y="36.664819" style="stroke: #000000"/>
     <use xlink:href="#m73613f607d" x="120.77805" y="28.109619" style="stroke: #000000"/>
     <use xlink:href="#m73613f607d" x="120.77805" y="19.554419" style="stroke: #000000"/>
     <use xlink:href="#m73613f607d" x="120.77805" y="10.999219" style="stroke: #000000"/>
     <use xlink:href="#m73613f607d" x="120.77805" y="2.444019" style="stroke: #000000"/>
     <use xlink:href="#m73613f607d" x="120.77805" y="-1" style="stroke: #000000"/>
     <use xlink:href="#m73613f607d" x="124.455689" y="-1" style="stroke: #000000"/>
     <use xlink:href="#m73613f607d" x="129.33325" y="96.551219" style="stroke: #000000"/>
     <use xlink:href="#m73613f607d" x="129.33325" y="87.996019" style="stroke: #000000"/>
     <use xlink:href="#m73613f607d" x="129.33325" y="79.440819" style="stroke: #000000"/>
     <use xlink:href="#m73613f607d" x="129.33325" y="70.885619" style="stroke: #000000"/>
     <use xlink:href="#m73613f607d" x="129.33325" y="62.330419" style="stroke: #000000"/>
     <use xlink:href="#m73613f607d" x="129.33325" y="53.775219" style="stroke: #000000"/>
     <use xlink:href="#m73613f607d" x="129.33325" y="45.220019" style="stroke: #000000"/>
     <use xlink:href="#m73613f607d" x="129.33325" y="36.664819" style="stroke: #000000"/>
     <use xlink:href="#m73613f607d" x="129.33325" y="28.109619" style="stroke: #000000"/>
     <use xlink:href="#m73613f607d" x="129.33325" y="19.554419" style="stroke: #000000"/>
     <use xlink:href="#m73613f607d" x="129.33325" y="10.999219" style="stroke: #000000"/>
     <use xlink:href="#m73613f607d" x="129.33325" y="2.444019" style="stroke: #000000"/>
     <use xlink:href="#m73613f607d" x="129.33325" y="-1" style="stroke: #000000"/>
     <use xlink:href="#m73613f607d" x="133.010889" y="-1" style="stroke: #000000"/>
     <use xlink:href="#m73613f607d" x="137.88845" y="96.551219" style="stroke: #000000"/>
     <use xlink:href="#m73613f607d" x="137.88845" y="87.996019" style="stroke: #000000"/>
     <use xlink:href="#m73613f607d" x="137.88845" y="79.440819" style="stroke: #000000"/>
     <use xlink:href="#m73613f607d" x="137.88845" y="70.885619" style="stroke: #000000"/>
     <use xlink:href="#m73613f607d" x="137.88845" y="62.330419" style="stroke: #000000"/>
     <use xlink:href="#m73613f607d" x="137.88845" y="53.775219" style="stroke: #000000"/>
     <use xlink:href="#m73613f607d" x="137.88845" y="45.220019" style="stroke: #000000"/>
     <use xlink:href="#m73613f607d" x="137.88845" y="36.664819" style="stroke: #000000"/>
     <use xlink:href="#m73613f607d" x="137.88845" y="28.109619" style="stroke: #000000"/>
     <use xlink:href="#m73613f607d" x="137.88845" y="19.554419" style="stroke: #000000"/>
     <use xlink:href="#m73613f607d" x="137.88845" y="10.999219" style="stroke: #000000"/>
     <use xlink:href="#m73613f607d" x="137.88845" y="2.444019" style="stroke: #000000"/>
     <use xlink:href="#m73613f607d" x="137.88845" y="-1" style="stroke: #000000"/>
     <use xlink:href="#m73613f607d" x="141.566089" y="-1" style="stroke: #000000"/>
     <use xlink:href="#m73613f607d" x="146.44365" y="96.551219" style="stroke: #000000"/>
     <use xlink:href="#m73613f607d" x="146.44365" y="87.996019" style="stroke: #000000"/>
     <use xlink:href="#m73613f607d" x="146.44365" y="79.440819" style="stroke: #000000"/>
     <use xlink:href="#m73613f607d" x="146.44365" y="70.885619" style="stroke: #000000"/>
     <use xlink:href="#m73613f607d" x="146.44365" y="62.330419" style="stroke: #000000"/>
     <use xlink:href="#m73613f607d" x="146.44365" y="53.775219" style="stroke: #000000"/>
     <use xlink:href="#m73613f607d" x="146.44365" y="45.220019" style="stroke: #000000"/>
     <use xlink:href="#m73613f607d" x="146.44365" y="36.664819" style="stroke: #000000"/>
     <use xlink:href="#m73613f607d" x="146.44365" y="28.109619" style="stroke: #000000"/>
     <use xlink:href="#m73613f607d" x="146.44365" y="19.554419" style="stroke: #000000"/>
     <use xlink:href="#m73613f607d" x="146.44365" y="10.999219" style="stroke: #000000"/>
     <use xlink:href="#m73613f607d" x="146.44365" y="2.444019" style="stroke: #000000"/>
     <use xlink:href="#m73613f607d" x="146.44365" y="-1" style="stroke: #000000"/>
     <use xlink:href="#m73613f607d" x="150.121289" y="-1" style="stroke: #000000"/>
     <use xlink:href="#m73613f607d" x="154.99885" y="96.551219" style="stroke: #000000"/>
     <use xlink:href="#m73613f607d" x="154.99885" y="87.996019" style="stroke: #000000"/>
     <use xlink:href="#m73613f607d" x="154.99885" y="79.440819" style="stroke: #000000"/>
     <use xlink:href="#m73613f607d" x="154.99885" y="70.885619" style="stroke: #000000"/>
     <use xlink:href="#m73613f607d" x="154.99885" y="62.330419" style="stroke: #000000"/>
     <use xlink:href="#m73613f607d" x="154.99885" y="53.775219" style="stroke: #000000"/>
     <use xlink:href="#m73613f607d" x="154.99885" y="45.220019" style="stroke: #000000"/>
     <use xlink:href="#m73613f607d" x="154.99885" y="36.664819" style="stroke: #000000"/>
     <use xlink:href="#m73613f607d" x="154.99885" y="28.109619" style="stroke: #000000"/>
     <use xlink:href="#m73613f607d" x="154.99885" y="19.554419" style="stroke: #000000"/>
     <use xlink:href="#m73613f607d" x="154.99885" y="10.999219" style="stroke: #000000"/>
     <use xlink:href="#m73613f607d" x="154.99885" y="2.444019" style="stroke: #000000"/>
     <use xlink:href="#m73613f607d" x="154.99885" y="-1" style="stroke: #000000"/>
     <use xlink:href="#m73613f607d" x="158.676489" y="-1" style="stroke: #000000"/>
     <use xlink:href="#m73613f607d" x="163.55405" y="96.551219" style="stroke: #000000"/>
     <use xlink:href="#m73613f607d" x="163.55405" y="87.996019" style="stroke: #000000"/>
     <use xlink:href="#m73613f607d" x="163.55405" y="79.440819" style="stroke: #000000"/>
     <use xlink:href="#m73613f607d" x="163.55405" y="70.885619" style="stroke: #000000"/>
     <use xlink:href="#m73613f607d" x="163.55405" y="62.330419" style="stroke: #000000"/>
     <use xlink:href="#m73613f607d" x="163.55405" y="53.775219" style="stroke: #000000"/>
     <use xlink:href="#m73613f607d" x="163.55405" y="45.220019" style="stroke: #000000"/>
     <use xlink:href="#m73613f607d" x="163.55405" y="36.664819" style="stroke: #000000"/>
     <use xlink:href="#m73613f607d" x="163.55405" y="28.109619" style="stroke: #000000"/>
     <use xlink:href="#m73613f607d" x="163.55405" y="19.554419" style="stroke: #000000"/>
     <use xlink:href="#m73613f607d" x="163.55405" y="10.999219" style="stroke: #000000"/>
     <use xlink:href="#m73613f607d" x="163.55405" y="2.444019" style="stroke: #000000"/>
     <use xlink:href="#m73613f607d" x="163.55405" y="-1" style="stroke: #000000"/>
     <use xlink:href="#m73613f607d" x="167.231689" y="-1" style="stroke: #000000"/>
     <use xlink:href="#m73613f607d" x="172.10925" y="96.551219" style="stroke: #000000"/>
     <use xlink:href="#m73613f607d" x="172.10925" y="87.996019" style="stroke: #000000"/>
     <use xlink:href="#m73613f607d" x="172.10925" y="79.440819" style="stroke: #000000"/>
     <use xlink:href="#m73613f607d" x="172.10925" y="70.885619" style="stroke: #000000"/>
     <use xlink:href="#m73613f607d" x="172.10925" y="62.330419" style="stroke: #000000"/>
     <use xlink:href="#m73613f607d" x="172.10925" y="53.775219" style="stroke: #000000"/>
     <use xlink:href="#m73613f607d" x="172.10925" y="45.220019" style="stroke: #000000"/>
     <use xlink:href="#m73613f607d" x="172.10925" y="36.664819" style="stroke: #000000"/>
     <use xlink:href="#m73613f607d" x="172.10925" y="28.109619" style="stroke: #000000"/>
     <use xlink:href="#m73613f607d" x="172.10925" y="19.554419" style="stroke: #000000"/>
     <use xlink:href="#m73613f607d" x="172.10925" y="10.999219" style="stroke: #000000"/>
     <use xlink:href="#m73613f607d" x="172.10925" y="2.444019" style="stroke: #000000"/>
     <use xlink:href="#m73613f607d" x="172.10925" y="-1" style="stroke: #000000"/>
     <use xlink:href="#m73613f607d" x="175.786889" y="-1" style="stroke: #000000"/>
     <use xlink:href="#m73613f607d" x="180.66445" y="96.551219" style="stroke: #000000"/>
     <use xlink:href="#m73613f607d" x="180.66445" y="87.996019" style="stroke: #000000"/>
     <use xlink:href="#m73613f607d" x="180.66445" y="79.440819" style="stroke: #000000"/>
     <use xlink:href="#m73613f607d" x="180.66445" y="70.885619" style="stroke: #000000"/>
     <use xlink:href="#m73613f607d" x="180.66445" y="62.330419" style="stroke: #000000"/>
     <use xlink:href="#m73613f607d" x="180.66445" y="53.775219" style="stroke: #000000"/>
     <use xlink:href="#m73613f607d" x="180.66445" y="45.220019" style="stroke: #000000"/>
     <use xlink:href="#m73613f607d" x="180.66445" y="36.664819" style="stroke: #000000"/>
     <use xlink:href="#m73613f607d" x="180.66445" y="28.109619" style="stroke: #000000"/>
     <use xlink:href="#m73613f607d" x="180.66445" y="19.554419" style="stroke: #000000"/>
     <use xlink:href="#m73613f607d" x="180.66445" y="10.999219" style="stroke: #000000"/>
     <use xlink:href="#m73613f607d" x="180.66445" y="2.444019" style="stroke: #000000"/>
     <use xlink:href="#m73613f607d" x="180.66445" y="-1" style="stroke: #000000"/>
     <use xlink:href="#m73613f607d" x="184.342089" y="-1" style="stroke: #000000"/>
     <use xlink:href="#m73613f607d" x="189.21965" y="96.551219" style="stroke: #000000"/>
     <use xlink:href="#m73613f607d" x="189.21965" y="87.996019" style="stroke: #000000"/>
     <use xlink:href="#m73613f607d" x="189.21965" y="79.440819" style="stroke: #000000"/>
     <use xlink:href="#m73613f607d" x="189.21965" y="70.885619" style="stroke: #000000"/>
     <use xlink:href="#m73613f607d" x="189.21965" y="62.330419" style="stroke: #000000"/>
     <use xlink:href="#m73613f607d" x="189.21965" y="53.775219" style="stroke: #000000"/>
     <use xlink:href="#m73613f607d" x="189.21965" y="45.220019" style="stroke: #000000"/>
     <use xlink:href="#m73613f607d" x="189.21965" y="36.664819" style="stroke: #000000"/>
     <use xlink:href="#m73613f607d" x="189.21965" y="28.109619" style="stroke: #000000"/>
     <use xlink:href="#m73613f607d" x="189.21965" y="19.554419" style="stroke: #000000"/>
     <use xlink:href="#m73613f607d" x="189.21965" y="10.999219" style="stroke: #000000"/>
     <use xlink:href="#m73613f607d" x="189.21965" y="2.444019" style="stroke: #000000"/>
     <use xlink:href="#m73613f607d" x="189.21965" y="-1" style="stroke: #000000"/>
     <use xlink:href="#m73613f607d" x="192.897289" y="-1" style="stroke: #000000"/>
     <use xlink:href="#m73613f607d" x="197.77485" y="96.551219" style="stroke: #000000"/>
     <use xlink:href="#m73613f607d" x="197.77485" y="87.996019" style="stroke: #000000"/>
     <use xlink:href="#m73613f607d" x="197.77485" y="79.440819" style="stroke: #000000"/>
     <use xlink:href="#m73613f607d" x="197.77485" y="70.885619" style="stroke: #000000"/>
     <use xlink:href="#m73613f607d" x="197.77485" y="62.330419" style="stroke: #000000"/>
     <use xlink:href="#m73613f607d" x="197.77485" y="53.775219" style="stroke: #000000"/>
     <use xlink:href="#m73613f607d" x="197.77485" y="45.220019" style="stroke: #000000"/>
     <use xlink:href="#m73613f607d" x="197.77485" y="36.664819" style="stroke: #000000"/>
     <use xlink:href="#m73613f607d" x="197.77485" y="28.109619" style="stroke: #000000"/>
     <use xlink:href="#m73613f607d" x="197.77485" y="19.554419" style="stroke: #000000"/>
     <use xlink:href="#m73613f607d" x="197.77485" y="10.999219" style="stroke: #000000"/>
     <use xlink:href="#m73613f607d" x="197.77485" y="2.444019" style="stroke: #000000"/>
     <use xlink:href="#m73613f607d" x="197.77485" y="-1" style="stroke: #000000"/>
     <use xlink:href="#m73613f607d" x="201.452489" y="-1" style="stroke: #000000"/>
     <use xlink:href="#m73613f607d" x="206.33005" y="96.551219" style="stroke: #000000"/>
     <use xlink:href="#m73613f607d" x="206.33005" y="87.996019" style="stroke: #000000"/>
     <use xlink:href="#m73613f607d" x="206.33005" y="79.440819" style="stroke: #000000"/>
     <use xlink:href="#m73613f607d" x="206.33005" y="70.885619" style="stroke: #000000"/>
     <use xlink:href="#m73613f607d" x="206.33005" y="62.330419" style="stroke: #000000"/>
     <use xlink:href="#m73613f607d" x="206.33005" y="53.775219" style="stroke: #000000"/>
     <use xlink:href="#m73613f607d" x="206.33005" y="45.220019" style="stroke: #000000"/>
     <use xlink:href="#m73613f607d" x="206.33005" y="36.664819" style="stroke: #000000"/>
     <use xlink:href="#m73613f607d" x="206.33005" y="28.109619" style="stroke: #000000"/>
     <use xlink:href="#m73613f607d" x="206.33005" y="19.554419" style="stroke: #000000"/>
     <use xlink:href="#m73613f607d" x="206.33005" y="10.999219" style="stroke: #000000"/>
     <use xlink:href="#m73613f607d" x="206.33005" y="2.444019" style="stroke: #000000"/>
     <use xlink:href="#m73613f607d" x="206.33005" y="-1" style="stroke: #000000"/>
     <use xlink:href="#m73613f607d" x="210.007689" y="-1" style="stroke: #000000"/>
     <use xlink:href="#m73613f607d" x="214.88525" y="96.551219" style="stroke: #000000"/>
     <use xlink:href="#m73613f607d" x="214.88525" y="87.996019" style="stroke: #000000"/>
     <use xlink:href="#m73613f607d" x="214.88525" y="79.440819" style="stroke: #000000"/>
     <use xlink:href="#m73613f607d" x="214.88525" y="70.885619" style="stroke: #000000"/>
     <use xlink:href="#m73613f607d" x="214.88525" y="62.330419" style="stroke: #000000"/>
     <use xlink:href="#m73613f607d" x="214.88525" y="53.775219" style="stroke: #000000"/>
     <use xlink:href="#m73613f607d" x="214.88525" y="45.220019" style="stroke: #000000"/>
     <use xlink:href="#m73613f607d" x="214.88525" y="36.664819" style="stroke: #000000"/>
     <use xlink:href="#m73613f607d" x="214.88525" y="28.109619" style="stroke: #000000"/>
     <use xlink:href="#m73613f607d" x="214.88525" y="19.554419" style="stroke: #000000"/>
     <use xlink:href="#m73613f607d" x="214.88525" y="10.999219" style="stroke: #000000"/>
     <use xlink:href="#m73613f607d" x="214.88525" y="2.444019" style="stroke: #000000"/>
     <use xlink:href="#m73613f607d" x="214.88525" y="-1" style="stroke: #000000"/>
    </g>
   </g>
   <g id="patch_3">
    <path d="M 43.78125 96.551219 
L 43.78125 10.999219 
" style="fill: none; stroke: #000000; stroke-width: 0.8; stroke-linejoin: miter; stroke-linecap: square"/>
   </g>
   <g id="patch_4">
    <path d="M 214.88525 96.551219 
L 214.88525 10.999219 
" style="fill: none; stroke: #000000; stroke-width: 0.8; stroke-linejoin: miter; stroke-linecap: square"/>
   </g>
   <g id="patch_5">
    <path d="M 43.78125 96.551219 
L 214.88525 96.551219 
" style="fill: none; stroke: #000000; stroke-width: 0.8; stroke-linejoin: miter; stroke-linecap: square"/>
   </g>
   <g id="patch_6">
    <path d="M 43.78125 10.999219 
L 214.88525 10.999219 
" style="fill: none; stroke: #000000; stroke-width: 0.8; stroke-linejoin: miter; stroke-linecap: square"/>
   </g>
  </g>
 </g>
 <defs>
  <clipPath id="pa3381ff29f">
   <rect x="43.78125" y="10.999219" width="171.104" height="85.552"/>
  </clipPath>
 </defs>
</svg>
