<?xml version="1.0" encoding="utf-8"?>
<!-- Generator: Adobe Illustrator 27.0.0, SVG Export Plug-In . SVG Version: 6.00 Build 0)  -->
<svg version="1.1" id="Layer_1" xmlns="http://www.w3.org/2000/svg" xmlns:xlink="http://www.w3.org/1999/xlink" x="0px" y="0px"
	 viewBox="0 0 199.7 32" style="enable-background:new 0 0 199.7 32;" xml:space="preserve">
<style type="text/css">
	.st0{fill:#3C50E0;}
	.st1{fill:#FFFFFF;}
</style>
<path class="st0" d="M0,8.4C0,3.8,3.8,0,8.4,0h15.2C28.2,0,32,3.8,32,8.4v15.2c0,4.7-3.8,8.4-8.4,8.4H8.4C3.8,32,0,28.2,0,23.6V8.4z
	"/>
<g>
	<ellipse class="st1" cx="21.9" cy="24.9" rx="2.2" ry="2.2"/>
	<path class="st1" d="M9.6,22.7c-1.3-0.1-2.5,1-2.4,2.4c0.1,1.1,1,2,2.1,2.1c1.3,0.1,2.5-1,2.4-2.4C11.6,23.7,10.7,22.8,9.6,22.7z"
		/>
	<path class="st1" d="M10.8,14.6v1.7c0,1,0.8,1.8,1.8,1.8h2.7v-3.6h-3.7C11.4,14.6,11.1,14.6,10.8,14.6L10.8,14.6z"/>
	<path class="st1" d="M19.3,15.4c-0.5-0.5-1.2-0.8-2-0.8h-0.6v3.6h5.4L19.3,15.4z"/>
	<path class="st1" d="M25.9,24.6c0.7,0,1.2-0.5,1.3-1.2l0,0v-1.9c0-0.8-0.5-1.5-1.2-1.7c-0.4-0.1-0.8-0.3-1.5-0.3H12.6
		c-1.7,0-3.1-1.4-3.1-3.1v-1.2c-0.3,0.2-0.6,0.4-0.8,0.6l-3.3,3.3C5,19.5,4.8,20,4.8,20.5v2.7c0,0.1,0,0.2,0,0.3
		C5,24,5.4,24.4,6,24.4c0.2-1.7,1.7-3,3.5-3c1.9,0,3.5,1.5,3.5,3.4h5.4c0.1-1.9,1.6-3.4,3.5-3.4s3.4,1.5,3.5,3.2H25.9L25.9,24.6z
		 M18,21.7h-1.1c-0.4,0-0.7-0.3-0.7-0.6c0-0.4,0.3-0.7,0.7-0.7H18c0.4,0,0.7,0.3,0.7,0.7C18.7,21.4,18.3,21.7,18,21.7z"/>
	<path class="st1" d="M15.9,12.5c0.4,0.1,0.8-0.3,0.7-0.7c0-0.3-0.3-0.5-0.6-0.6c-0.4-0.1-0.8,0.3-0.7,0.7
		C15.4,12.3,15.6,12.5,15.9,12.5L15.9,12.5z"/>
	<path class="st1" d="M17.8,10.1c0.3,0.3,0.7,0.3,0.9,0c0.3-0.3,0.3-0.7,0-0.9C18,8.4,17,8,16,8s-2,0.4-2.7,1.1
		C13,9.4,13,9.8,13.3,10c0.3,0.3,0.7,0.3,0.9,0c0.5-0.5,1.1-0.7,1.8-0.7C16.7,9.3,17.3,9.6,17.8,10.1L17.8,10.1z"/>
	<path class="st1" d="M12,7.8c1.1-1.1,2.5-1.7,4-1.7s3,0.6,4.1,1.7c0.3,0.3,0.7,0.3,0.9,0c0.2-0.3,0.2-0.7,0-0.9c-1.3-1.3-3.1-2-5-2
		S12.4,5.6,11,7c-0.3,0.3-0.3,0.7,0,0.9S11.7,8.1,12,7.8L12,7.8z"/>
</g>
<g>
	<path class="st1" d="M43.7,20.4l3.4-0.6c0.3,2.4,2,4,5,4c2.3,0,4.4-1.2,4.4-2.5c0-1.3-1-1.8-3.5-2.5L49.7,18
		c-4.3-1.2-5.8-2.9-5.8-5.4c0-3.5,3.2-6.2,8-6.2S60,9,60,13l-3.4,0.6c-0.3-2.5-1.9-4-4.7-4c-2.3,0-4.1,1.1-4.1,2.5
		c0,1.2,1.1,1.8,3.2,2.4l3.2,0.8c4.5,1.2,6.1,3,6.1,5.5c0,3.4-3.4,6.3-8.3,6.3C47,27.2,43.7,24.3,43.7,20.4z"/>
	<path class="st1" d="M62.4,19.8c0-4.2,3.1-7.3,7.6-7.3c3.7,0,5.9,2,6.6,4.9l-3.3,0.9c-0.5-1.6-1.7-2.5-3.3-2.5
		c-2.2,0-3.8,1.7-3.8,4.1s1.6,4.1,3.8,4.1c1.6,0,2.8-0.9,3.3-2.5l3.3,0.9c-0.7,2.9-2.9,4.9-6.6,4.9C65.5,27.2,62.4,24,62.4,19.8z"/>
	<path class="st1" d="M78.2,19.8c0-4.2,2.9-7.3,7.3-7.3s7.3,3.1,7.3,7.3c0,0.3,0,0.7-0.1,0.9H82c0.1,2,1.7,3.4,3.8,3.4
		c1.6,0,2.8-0.7,3.5-1.8l3.3,0.6c-1,2.4-3.5,4.2-6.7,4.2C80.9,27.2,78.2,24,78.2,19.8z M82,18.4h7.1c-0.3-1.7-1.7-3-3.5-3
		S82.3,16.7,82,18.4z"/>
	<path class="st1" d="M105.3,26.9v-7.1c0-2.4-0.9-3.8-2.9-3.8c-2.1,0-3,1.5-3,3.9v6.9h-3.7V12.8h3.5v2.3c0.8-1.6,2.2-2.6,4.5-2.6
		c3.8,0,5.5,2.2,5.5,5.9v8.5H105.3z"/>
	<path class="st1" d="M111.9,23c0-1.9,1.2-3.4,3.7-3.9l3.8-0.7c1.3-0.2,1.8-0.6,1.8-1.2c0-1-0.9-1.7-2.5-1.7c-1.5,0-2.7,0.8-3.2,2.3
		l-3.2-0.5c0.5-3.1,2.9-4.8,6.3-4.8c3.7,0,6.3,2,6.3,5.1v9.2h-3.5v-2.3c-0.8,1.7-2.5,2.6-4.5,2.6C113.7,27.2,111.9,25.5,111.9,23z
		 M121.4,20.6V20c-0.1,0.2-0.6,0.5-1.5,0.8l-2.5,0.5c-1.2,0.3-1.7,0.8-1.7,1.6c0,0.9,0.8,1.5,2,1.5
		C119.5,24.4,121.4,22.6,121.4,20.6z"/>
	<path class="st1" d="M128.3,26.9V12.8h3.5v2.5c0.7-1.8,2.3-2.8,4.1-2.8c0.5,0,1.1,0.1,1.4,0.3v3.5c-0.4-0.1-1.2-0.2-1.7-0.2
		c-1.9,0-3.6,1.3-3.6,3.5v7.3H128.3z"/>
	<path class="st1" d="M139.3,7.9c0-1.2,0.9-2.1,2.1-2.1s2.2,0.9,2.2,2.1s-0.9,2.1-2.2,2.1S139.3,9.1,139.3,7.9z M139.5,26.9V12.8
		h3.7v14.1H139.5z"/>
	<path class="st1" d="M145.9,19.8c0-4.2,3.1-7.3,7.6-7.3s7.6,3.1,7.6,7.3s-3.1,7.3-7.6,7.3S145.9,24,145.9,19.8z M157.2,19.8
		c0-2.4-1.6-4.1-3.8-4.1c-2.2,0-3.7,1.7-3.7,4.1s1.6,4.1,3.7,4.1C155.7,23.9,157.2,22.2,157.2,19.8z"/>
	<path class="st1" d="M176.1,26.9l-4.8-7.8l-4.8,7.8h-4.7l6.9-10.3l-6.6-10h4.5l4.8,7.6l4.8-7.6h4.5l-6.6,10l6.9,10.3H176.1z"/>
	<path class="st1" d="M182.5,26.9V6.6h8.1c4.6,0,7.8,2.4,7.8,6.7c0,4.3-3.2,6.7-7.8,6.7h-4.3v6.9H182.5z M189.9,16.7
		c3.1,0,4.6-1.4,4.6-3.4c0-2-1.4-3.4-4.6-3.4h-3.6v6.8H189.9z"/>
</g>
</svg>
